<svg xmlns="http://www.w3.org/2000/svg">

  <!-- Example icon for the pattern library -->
  <symbol viewBox="0 0 16 16" id="icon-coffee" preserveAspectRatio="xMinYMin">
    <path d="M7,3c0.553,0,1-0.447,1-1V1c0-0.553-0.447-1-1-1S6,0.447,6,1v1C6,2.553,6.447,3,7,3z"/>
    <path d="M10,3c0.553,0,1-0.447,1-1V1c0-0.553-0.447-1-1-1S9,0.447,9,1v1C9,2.553,9.447,3,10,3z"/>
    <path d="M13,3c0.553,0,1-0.447,1-1V1c0-0.553-0.447-1-1-1s-1,0.447-1,1v1C12,2.553,12.447,3,13,3z"/>
    <path d="M15,4H5C4.447,4,4,4.447,4,5v1H3.031C1.359,6,0,7.346,0,9v2c0,1.654,1.346,3,3,3h1.185C4.599,15.162,5.698,16,7,16h6c1.654,0,3-1.346,3-3V5C16,4.447,15.553,4,15,4z M2,11V9c0-0.542,0.473-1,1.031-1H4v4H3C2.449,12,2,11.551,2,11z"/>
  </symbol>

  <!-- Add your own icons here -->

</svg>
